<svg width="26" height="24" viewBox="0 0 26 24" fill="none" xmlns="http://www.w3.org/2000/svg">
<path d="M22.8045 1.85352L14.1948 8.22404L15.7959 4.46968L22.8045 1.85352Z" fill="#E17726" stroke="#E17726" stroke-width="0.25" stroke-linecap="round" stroke-linejoin="round"/>
<path d="M2.94214 1.85352L11.4751 8.2835L9.95078 4.46968L2.94214 1.85352Z" fill="#E27625" stroke="#E27625" stroke-width="0.25" stroke-linecap="round" stroke-linejoin="round"/>
<path d="M19.7017 16.624L17.4109 20.1236L22.3161 21.4741L23.7212 16.7005L19.7017 16.624Z" fill="#E27625" stroke="#E27625" stroke-width="0.25" stroke-linecap="round" stroke-linejoin="round"/>
<path d="M2.03198 16.7005L3.42859 21.4741L8.32528 20.1236L6.04299 16.624L2.03198 16.7005Z" fill="#E27625" stroke="#E27625" stroke-width="0.25" stroke-linecap="round" stroke-linejoin="round"/>
<path d="M8.0615 10.7135L6.69897 12.7691L11.5531 12.9899L11.3913 7.76611L8.0615 10.7135Z" fill="#E27625" stroke="#E27625" stroke-width="0.25" stroke-linecap="round" stroke-linejoin="round"/>
<path d="M17.6863 10.7129L14.3055 7.70605L14.1948 12.9893L19.0489 12.7685L17.6863 10.7129Z" fill="#E27625" stroke="#E27625" stroke-width="0.25" stroke-linecap="round" stroke-linejoin="round"/>
<path d="M8.32495 20.124L11.2629 18.7055L8.73373 16.7349L8.32495 20.124Z" fill="#E27625" stroke="#E27625" stroke-width="0.25" stroke-linecap="round" stroke-linejoin="round"/>
<path d="M14.4839 18.7055L17.4133 20.124L17.0131 16.7349L14.4839 18.7055Z" fill="#E27625" stroke="#E27625" stroke-width="0.25" stroke-linecap="round" stroke-linejoin="round"/>
<path d="M17.4133 20.124L14.4839 18.7056L14.7223 20.6082L14.6967 21.4152L17.4133 20.124Z" fill="#D5BFB2" stroke="#D5BFB2" stroke-width="0.25" stroke-linecap="round" stroke-linejoin="round"/>
<path d="M8.32495 20.124L11.0501 21.4152L11.033 20.6082L11.2629 18.7056L8.32495 20.124Z" fill="#D5BFB2" stroke="#D5BFB2" stroke-width="0.25" stroke-linecap="round" stroke-linejoin="round"/>
<path d="M11.1023 15.4771L8.66675 14.7636L10.387 13.9736L11.1023 15.4771Z" fill="#233447" stroke="#233447" stroke-width="0.25" stroke-linecap="round" stroke-linejoin="round"/>
<path d="M14.6443 15.4771L15.3597 13.9736L17.0884 14.7636L14.6443 15.4771Z" fill="#233447" stroke="#233447" stroke-width="0.25" stroke-linecap="round" stroke-linejoin="round"/>
<path d="M8.32595 20.1236L8.75178 16.624L6.0437 16.7005L8.32595 20.1236Z" fill="#CC6228" stroke="#CC6228" stroke-width="0.25" stroke-linecap="round" stroke-linejoin="round"/>
<path d="M16.9929 16.624L17.4102 20.1236L19.701 16.7005L16.9929 16.624Z" fill="#CC6228" stroke="#CC6228" stroke-width="0.25" stroke-linecap="round" stroke-linejoin="round"/>
<path d="M19.0489 12.7686L14.1948 12.9894L14.6461 15.4782L15.3615 13.9747L17.0902 14.7647L19.0489 12.7686Z" fill="#CC6228" stroke="#CC6228" stroke-width="0.25" stroke-linecap="round" stroke-linejoin="round"/>
<path d="M8.66615 14.7647L10.3864 13.9747L11.1017 15.4782L11.5531 12.9894L6.69897 12.7686L8.66615 14.7647Z" fill="#CC6228" stroke="#CC6228" stroke-width="0.25" stroke-linecap="round" stroke-linejoin="round"/>
<path d="M6.69897 12.7686L8.7343 16.7353L8.66613 14.7647L6.69897 12.7686Z" fill="#E27525" stroke="#E27525" stroke-width="0.25" stroke-linecap="round" stroke-linejoin="round"/>
<path d="M17.0879 14.7647L17.0112 16.7353L19.0465 12.7686L17.0879 14.7647Z" fill="#E27525" stroke="#E27525" stroke-width="0.25" stroke-linecap="round" stroke-linejoin="round"/>
<path d="M11.5537 12.9897L11.1023 15.4786L11.6729 18.4174L11.8006 14.5442L11.5537 12.9897Z" fill="#E27525" stroke="#E27525" stroke-width="0.25" stroke-linecap="round" stroke-linejoin="round"/>
<path d="M14.1933 12.9897L13.9548 14.5357L14.0741 18.4174L14.6446 15.4786L14.1933 12.9897Z" fill="#E27525" stroke="#E27525" stroke-width="0.25" stroke-linecap="round" stroke-linejoin="round"/>
<path d="M14.6426 15.4777L14.072 18.4166L14.4808 18.7054L17.0101 16.7348L17.0867 14.7642L14.6426 15.4777Z" fill="#F5841F" stroke="#F5841F" stroke-width="0.25" stroke-linecap="round" stroke-linejoin="round"/>
<path d="M8.66675 14.7642L8.73492 16.7348L11.2641 18.7054L11.6729 18.4166L11.1023 15.4777L8.66675 14.7642Z" fill="#F5841F" stroke="#F5841F" stroke-width="0.25" stroke-linecap="round" stroke-linejoin="round"/>
<path d="M14.6949 21.4156L14.7204 20.6087L14.499 20.4218H11.2459L11.033 20.6087L11.0501 21.4156L8.32495 20.1245L9.27873 20.906L11.2119 22.2395H14.5245L16.4662 20.906L17.4114 20.1245L14.6949 21.4156Z" fill="#C0AC9D" stroke="#C0AC9D" stroke-width="0.25" stroke-linecap="round" stroke-linejoin="round"/>
<path d="M14.4831 18.7053L14.0743 18.4165H11.6729L11.2641 18.7053L11.0342 20.608L11.2471 20.4211H14.5002L14.7216 20.608L14.4831 18.7053Z" fill="#161616" stroke="#161616" stroke-width="0.25" stroke-linecap="round" stroke-linejoin="round"/>
<path d="M23.1701 8.64023L23.894 5.12372L22.8039 1.85352L14.4839 8.01172L17.6858 10.7128L22.2078 12.0294L23.2042 10.8657L22.7699 10.5514L23.4596 9.92288L22.9317 9.51515L23.6215 8.98851L23.1701 8.64023Z" fill="#763E1A" stroke="#763E1A" stroke-width="0.25" stroke-linecap="round" stroke-linejoin="round"/>
<path d="M1.85327 5.12372L2.58564 8.64023L2.11727 8.98851L2.81557 9.51515L2.28759 9.92288L2.97737 10.5514L2.54306 10.8657L3.53943 12.0294L8.06142 10.7128L11.2634 8.01172L2.94331 1.85352L1.85327 5.12372Z" fill="#763E1A" stroke="#763E1A" stroke-width="0.25" stroke-linecap="round" stroke-linejoin="round"/>
<path d="M22.206 12.0294L17.684 10.7129L19.0466 12.7685L17.0112 16.7351L19.7023 16.7012H23.7218L22.206 12.0294Z" fill="#F5841F" stroke="#F5841F" stroke-width="0.25" stroke-linecap="round" stroke-linejoin="round"/>
<path d="M8.06124 10.7129L3.5393 12.0294L2.03198 16.7012H6.04299L8.734 16.7351L6.69872 12.7685L8.06124 10.7129Z" fill="#F5841F" stroke="#F5841F" stroke-width="0.25" stroke-linecap="round" stroke-linejoin="round"/>
<path d="M14.1928 12.9888L14.4824 8.01122L15.7938 4.46924H9.9519L11.2633 8.01122L11.5529 12.9888L11.6636 14.5517L11.6721 18.4165H14.0736L14.0821 14.5517L14.1928 12.9888Z" fill="#F5841F" stroke="#F5841F" stroke-width="0.25" stroke-linecap="round" stroke-linejoin="round"/>
</svg>
