<svg width="12" height="12" viewBox="0 0 12 12" fill="none" xmlns="http://www.w3.org/2000/svg">
<path fill-rule="evenodd" clip-rule="evenodd" d="M10.4121 1.21772C10.1192 0.924824 9.64429 0.924823 9.3514 1.21772L5.88173 4.68739L2.41206 1.21772C2.11916 0.924824 1.64429 0.924824 1.3514 1.21772C1.0585 1.51061 1.0585 1.98548 1.3514 2.27838L4.82107 5.74805L1.21967 9.34944C0.926777 9.64234 0.926777 10.1172 1.21967 10.4101C1.51256 10.703 1.98744 10.703 2.28033 10.4101L5.88173 6.80871L9.48313 10.4101C9.77602 10.703 10.2509 10.703 10.5438 10.4101C10.8367 10.1172 10.8367 9.64234 10.5438 9.34945L6.94239 5.74805L10.4121 2.27838C10.705 1.98548 10.705 1.51061 10.4121 1.21772Z" fill="white"/>
</svg>
