<svg width="24" height="24" viewBox="0 0 24 24" fill="none" xmlns="http://www.w3.org/2000/svg">
<ellipse cx="12" cy="12" rx="12" ry="12" fill="white"/>
<path d="M13.4261 10.3228H10.546C10.4237 10.3228 10.3245 10.4219 10.3245 10.5443V13.4243C10.3245 13.5467 10.4237 13.6459 10.546 13.6459H13.4261C13.5484 13.6459 13.6476 13.5467 13.6476 13.4243V10.5443C13.6476 10.4219 13.5484 10.3228 13.4261 10.3228Z" fill="#191919"/>
<path d="M10.1011 7H7.2211C7.0987 7 6.99951 7.09919 6.99951 7.22154V10.1016C6.99951 10.2239 7.0987 10.3231 7.2211 10.3231H10.1011C10.2235 10.3231 10.3227 10.2239 10.3227 10.1016V7.22154C10.3227 7.09919 10.2235 7 10.1011 7Z" fill="#191919"/>
<path d="M16.7479 7H13.8678C13.7455 7 13.6462 7.09919 13.6462 7.22154V10.1016C13.6462 10.2239 13.7455 10.3231 13.8678 10.3231H16.7479C16.8702 10.3231 16.9694 10.2239 16.9694 10.1016V7.22154C16.9694 7.09919 16.8702 7 16.7479 7Z" fill="#191919"/>
<path d="M10.1011 13.646H7.22104C7.0987 13.646 6.99951 13.7451 6.99951 13.8675V16.7475C6.99951 16.8699 7.0987 16.969 7.22104 16.969H10.1011C10.2235 16.969 10.3227 16.8699 10.3227 16.7475V13.8675C10.3227 13.7451 10.2235 13.646 10.1011 13.646Z" fill="#191919"/>
<path d="M16.7479 13.646H13.8678C13.7455 13.646 13.6462 13.7451 13.6462 13.8675V16.7475C13.6462 16.8699 13.7455 16.969 13.8678 16.969H16.7479C16.8702 16.969 16.9694 16.8699 16.9694 16.7475V13.8675C16.9694 13.7451 16.8702 13.646 16.7479 13.646Z" fill="#191919"/>
</svg>
