<svg width="140" height="36" viewBox="0 0 140 36" fill="none" xmlns="http://www.w3.org/2000/svg">
<path d="M139.961 11.3548V13.6215H133.313V11.3548H139.961ZM135.129 8.01758H138.033V21.1774C138.033 21.5972 138.079 21.9162 138.171 22.1345C138.263 22.3528 138.392 22.4997 138.559 22.5752C138.726 22.6508 138.922 22.6886 139.148 22.6886C139.315 22.6886 139.477 22.676 139.636 22.6508C139.803 22.6172 139.924 22.5878 139.999 22.5627V24.9302C139.782 25.0141 139.532 25.0855 139.248 25.1443C138.964 25.203 138.622 25.2324 138.221 25.2324C137.629 25.2324 137.099 25.1107 136.631 24.8672C136.164 24.6153 135.797 24.2082 135.529 23.6457C135.262 23.0748 135.129 22.3192 135.129 21.3789V8.01758Z" fill="white"/>
<path d="M130.046 24.9801H127.128V10.0572C127.128 9.04136 127.295 8.18922 127.629 7.5008C127.971 6.80398 128.451 6.27507 129.069 5.91406C129.695 5.55306 130.434 5.37256 131.285 5.37256C131.544 5.37256 131.798 5.39355 132.049 5.43552C132.299 5.46911 132.537 5.52368 132.762 5.59924L132.7 7.99193C132.583 7.95835 132.437 7.93316 132.261 7.91637C132.095 7.89958 131.932 7.89119 131.773 7.89119C131.406 7.89119 131.093 7.97514 130.834 8.14305C130.576 8.31096 130.379 8.55443 130.246 8.87345C130.112 9.19248 130.046 9.58706 130.046 10.0572V24.9801ZM132.249 11.3543V13.6211H125.426V11.3543H132.249Z" fill="white"/>
<path d="M120.318 22.2102V15.4225C120.318 14.9523 120.251 14.5745 120.117 14.2891C119.992 14.0036 119.804 13.798 119.554 13.672C119.312 13.5377 119.007 13.4705 118.64 13.4705C118.256 13.4705 117.93 13.5503 117.663 13.7098C117.405 13.8693 117.209 14.0876 117.075 14.3647C116.941 14.6333 116.875 14.9439 116.875 15.2965H113.958C113.958 14.7508 114.066 14.2261 114.283 13.7224C114.508 13.2187 114.83 12.7695 115.247 12.3749C115.664 11.9803 116.169 11.6697 116.762 11.443C117.355 11.2164 118.014 11.103 118.74 11.103C119.608 11.103 120.38 11.2499 121.056 11.5438C121.732 11.8292 122.262 12.2952 122.646 12.9416C123.038 13.5797 123.235 14.4192 123.235 15.4603V21.8198C123.235 22.4494 123.272 23.0119 123.347 23.5073C123.431 23.9942 123.543 24.4182 123.685 24.7792V24.9807H120.718C120.585 24.6532 120.484 24.2335 120.418 23.7214C120.351 23.2092 120.318 22.7055 120.318 22.2102ZM120.706 16.6818L120.718 18.5834H119.316C118.899 18.5834 118.523 18.6421 118.189 18.7597C117.855 18.8688 117.572 19.0283 117.338 19.2382C117.113 19.4397 116.937 19.6874 116.812 19.9812C116.695 20.275 116.637 20.5983 116.637 20.9509C116.637 21.379 116.695 21.7274 116.812 21.9961C116.937 22.2647 117.117 22.4662 117.35 22.6006C117.592 22.7265 117.885 22.7895 118.227 22.7895C118.694 22.7895 119.099 22.6887 119.441 22.4872C119.792 22.2773 120.059 22.0255 120.242 21.7316C120.434 21.4378 120.51 21.1691 120.468 20.9257L121.131 22.1472C121.065 22.4662 120.939 22.8021 120.756 23.1547C120.58 23.5073 120.351 23.8431 120.067 24.1621C119.783 24.4811 119.441 24.7414 119.041 24.9429C118.64 25.136 118.177 25.2325 117.651 25.2325C116.891 25.2325 116.215 25.073 115.623 24.754C115.03 24.435 114.563 23.9774 114.221 23.3813C113.887 22.7769 113.72 22.0549 113.72 21.2153C113.72 20.5353 113.832 19.9182 114.058 19.3641C114.283 18.81 114.617 18.3357 115.059 17.9411C115.502 17.5381 116.057 17.2275 116.724 17.0092C117.4 16.7909 118.189 16.6818 119.091 16.6818H120.706Z" fill="white"/>
<path d="M109.213 13.9869V24.9807H106.296V11.3549H109.075L109.213 13.9869ZM112.481 11.2667L112.468 14.1632C112.301 14.1212 112.122 14.096 111.93 14.0876C111.746 14.0708 111.562 14.0624 111.379 14.0624C110.978 14.0624 110.632 14.1338 110.34 14.2765C110.048 14.4192 109.801 14.6249 109.601 14.8936C109.401 15.1622 109.242 15.4854 109.125 15.8632C109.017 16.241 108.95 16.6692 108.925 17.1477L108.299 17.1729C108.299 16.3166 108.366 15.5232 108.499 14.7928C108.633 14.054 108.833 13.4118 109.1 12.8661C109.376 12.312 109.718 11.8796 110.127 11.569C110.536 11.2583 111.012 11.103 111.554 11.103C111.704 11.103 111.875 11.1198 112.067 11.1534C112.259 11.187 112.397 11.2248 112.481 11.2667Z" fill="white"/>
<path d="M100.824 18.9993H103.854C103.796 20.3258 103.528 21.455 103.053 22.3868C102.577 23.3103 101.893 24.0156 101 24.5025C100.115 24.9894 99.0339 25.2329 97.7569 25.2329C96.7888 25.2329 95.9207 25.0566 95.1529 24.704C94.3933 24.3514 93.7465 23.8435 93.2123 23.1802C92.6782 22.5086 92.2692 21.69 91.9854 20.7246C91.71 19.7591 91.5723 18.6635 91.5723 17.4377V14.1887C91.5723 12.963 91.7142 11.8674 91.9979 10.9019C92.2901 9.93643 92.7074 9.11787 93.2499 8.44624C93.7924 7.7746 94.4518 7.26668 95.228 6.92247C96.0126 6.56986 96.8973 6.39355 97.8821 6.39355C99.1425 6.39355 100.202 6.63702 101.062 7.12396C101.922 7.61089 102.585 8.3245 103.053 9.26479C103.52 10.2051 103.791 11.3511 103.867 12.7027H100.837C100.795 11.7876 100.67 11.0572 100.461 10.5115C100.261 9.95741 99.9521 9.55863 99.5347 9.31516C99.1258 9.0717 98.5749 8.94996 97.8821 8.94996C97.3062 8.94996 96.8096 9.0591 96.3923 9.27738C95.9833 9.49567 95.6453 9.82309 95.3782 10.2596C95.1195 10.6878 94.9233 11.2293 94.7898 11.8842C94.6646 12.5306 94.602 13.2904 94.602 14.1635V17.4377C94.602 18.2773 94.6563 19.0203 94.7648 19.6667C94.8733 20.3132 95.0485 20.8631 95.2906 21.3164C95.5326 21.7614 95.854 22.1014 96.2546 22.3365C96.6552 22.5631 97.156 22.6765 97.7569 22.6765C98.4747 22.6765 99.0465 22.5631 99.4721 22.3365C99.9061 22.1098 100.227 21.7278 100.436 21.1905C100.645 20.6532 100.774 19.9228 100.824 18.9993Z" fill="white"/>
<path d="M86.4268 13.9869V24.9807H83.5098V11.3549H86.2891L86.4268 13.9869ZM89.6944 11.2667L89.6819 14.1632C89.515 14.1212 89.3356 14.096 89.1436 14.0876C88.96 14.0708 88.7763 14.0624 88.5927 14.0624C88.1921 14.0624 87.8457 14.1338 87.5536 14.2765C87.2615 14.4192 87.0153 14.6249 86.8149 14.8936C86.6146 15.1622 86.456 15.4854 86.3392 15.8632C86.2307 16.241 86.1639 16.6692 86.1389 17.1477L85.5129 17.1729C85.5129 16.3166 85.5797 15.5232 85.7132 14.7928C85.8468 14.054 86.0471 13.4118 86.3142 12.8661C86.5896 12.312 86.9318 11.8796 87.3408 11.569C87.7497 11.2583 88.2255 11.103 88.768 11.103C88.9182 11.103 89.0893 11.1198 89.2813 11.1534C89.4733 11.187 89.611 11.2248 89.6944 11.2667Z" fill="white"/>
<path d="M76.5247 25.2325C75.6483 25.2325 74.8679 25.1024 74.1835 24.8421C73.4991 24.5735 72.9191 24.1789 72.4433 23.6584C71.9676 23.1295 71.6045 22.483 71.3541 21.719C71.1037 20.9467 70.9785 20.0526 70.9785 19.0367V17.727C70.9785 16.5768 71.1079 15.5862 71.3666 14.755C71.6337 13.9155 72.0009 13.2271 72.4683 12.6898C72.9357 12.1525 73.4866 11.7537 74.1209 11.4934C74.7636 11.2332 75.4605 11.103 76.2117 11.103C77.063 11.103 77.8017 11.2416 78.4277 11.5186C79.0537 11.7957 79.567 12.2112 79.9676 12.7653C80.3766 13.3194 80.677 14.0036 80.869 14.818C81.0693 15.6324 81.1695 16.5685 81.1695 17.6263V19.0997H72.3807V16.8833H78.29V16.5685C78.2733 15.9472 78.1982 15.4141 78.0646 14.9691C77.9311 14.5158 77.7141 14.1716 77.4136 13.9365C77.1215 13.693 76.7167 13.5713 76.1992 13.5713C75.8236 13.5713 75.4897 13.6426 75.1976 13.7854C74.9055 13.9281 74.6635 14.159 74.4715 14.478C74.2879 14.797 74.146 15.2252 74.0458 15.7625C73.9457 16.2914 73.8956 16.9462 73.8956 17.727V19.0367C73.8956 19.7167 73.954 20.2918 74.0709 20.762C74.1961 21.2321 74.3797 21.6183 74.6217 21.9205C74.8638 22.2144 75.1559 22.4327 75.4981 22.5754C75.8486 22.7097 76.2534 22.7769 76.7125 22.7769C77.3886 22.7769 77.9686 22.6509 78.4527 22.3991C78.9452 22.1388 79.3708 21.803 79.7297 21.3916L81.0192 23.1924C80.7772 23.5199 80.4517 23.8431 80.0427 24.1621C79.6337 24.4727 79.1371 24.7288 78.5529 24.9303C77.977 25.1318 77.3009 25.2325 76.5247 25.2325Z" fill="white"/>
<path d="M63.7171 23.4817L66.6216 11.3545H69.6889L65.2194 27.0455C65.1193 27.3898 64.9774 27.7592 64.7938 28.1537C64.6185 28.5483 64.389 28.9219 64.1052 29.2745C63.8298 29.6355 63.4834 29.9252 63.0661 30.1435C62.6571 30.3701 62.1688 30.4835 61.6013 30.4835C61.3676 30.4835 61.1422 30.4625 60.9252 30.4205C60.7082 30.3785 60.4996 30.3282 60.2992 30.2694V27.9019C60.366 27.9103 60.4411 27.9187 60.5246 27.9271C60.6081 27.9355 60.6832 27.9397 60.7499 27.9397C61.1589 27.9397 61.497 27.8767 61.764 27.7508C62.0311 27.6332 62.2523 27.4401 62.4276 27.1715C62.6029 26.9112 62.7573 26.5628 62.8908 26.1262L63.7171 23.4817ZM62.4276 11.3545L64.8063 21.492L65.3196 24.7788L63.3165 25.2951L59.2852 11.3545H62.4276Z" fill="white"/>
<path d="M54.715 22.2102V15.4225C54.715 14.9523 54.6482 14.5745 54.5147 14.2891C54.3895 14.0036 54.2017 13.798 53.9513 13.672C53.7093 13.5377 53.4046 13.4705 53.0374 13.4705C52.6535 13.4705 52.3279 13.5503 52.0609 13.7098C51.8021 13.8693 51.606 14.0876 51.4724 14.3647C51.3389 14.6333 51.2721 14.9439 51.2721 15.2965H48.3551C48.3551 14.7508 48.4636 14.2261 48.6806 13.7224C48.9059 13.2187 49.2273 12.7695 49.6446 12.3749C50.0619 11.9803 50.5669 11.6697 51.1595 11.443C51.752 11.2164 52.4114 11.103 53.1375 11.103C54.0056 11.103 54.7776 11.2499 55.4537 11.5438C56.1297 11.8292 56.6597 12.2952 57.0437 12.9416C57.4359 13.5797 57.6321 14.4192 57.6321 15.4603V21.8198C57.6321 22.4494 57.6696 23.0119 57.7448 23.5073C57.8282 23.9942 57.9409 24.4182 58.0828 24.7792V24.9807H55.1156C54.9821 24.6532 54.8819 24.2335 54.8152 23.7214C54.7484 23.2092 54.715 22.7055 54.715 22.2102ZM55.1031 16.6818L55.1156 18.5834H53.7134C53.2961 18.5834 52.9205 18.6421 52.5867 18.7597C52.2528 18.8688 51.9691 19.0283 51.7354 19.2382C51.51 19.4397 51.3347 19.6874 51.2095 19.9812C51.0927 20.275 51.0343 20.5983 51.0343 20.9509C51.0343 21.379 51.0927 21.7274 51.2095 21.9961C51.3347 22.2647 51.5142 22.4662 51.7479 22.6006C51.9899 22.7265 52.282 22.7895 52.6242 22.7895C53.0916 22.7895 53.4964 22.6887 53.8386 22.4872C54.1892 22.2773 54.4563 22.0255 54.6399 21.7316C54.8319 21.4378 54.907 21.1691 54.8653 20.9257L55.5288 22.1472C55.462 22.4662 55.3368 22.8021 55.1532 23.1547C54.9779 23.5073 54.7484 23.8431 54.4646 24.1621C54.1808 24.4811 53.8386 24.7414 53.438 24.9429C53.0374 25.136 52.5742 25.2325 52.0483 25.2325C51.2888 25.2325 50.6128 25.073 50.0202 24.754C49.4276 24.435 48.9602 23.9774 48.618 23.3813C48.2841 22.7769 48.1172 22.0549 48.1172 21.2153C48.1172 20.5353 48.2299 19.9182 48.4552 19.3641C48.6806 18.81 49.0144 18.3357 49.4568 17.9411C49.8991 17.5381 50.4542 17.2275 51.1219 17.0092C51.798 16.7909 52.5867 16.6818 53.4881 16.6818H55.1031Z" fill="white"/>
<path d="M46.2392 22.4237V24.9801H38.6648V22.4237H46.2392ZM39.4661 6.64453V24.9801H36.4238V6.64453H39.4661Z" fill="white"/>
<g opacity="0.3">
<path d="M2.14355 13.3447L14.603 16.9877V33.1256L2.14355 29.4826V13.3447ZM0 10.4766V31.1023L16.7465 35.9991V15.3734L0 10.4766Z" fill="#CD76FF"/>
</g>
<path opacity="0.7" d="M6.20605 5.38086L22.9526 10.2777V30.9034L6.20605 26.0013V5.38086Z" fill="#9B30D9"/>
<g opacity="0.3">
<path d="M13.708 2.86813L26.1674 6.51114V22.6491L13.708 19.0061V2.86813ZM11.5645 0V20.6258L28.311 25.5226V4.89681L11.5645 0Z" fill="#CD76FF"/>
</g>
<path d="M0 10.4775L2.14355 13.351V29.489L14.603 33.132L16.7465 36.0001L0 31.1033V10.4775Z" fill="#57A5D7"/>
<path d="M28.3119 4.89681L26.1738 6.51114L13.709 2.86813L13.6232 19.076L26.1684 22.6545L28.3119 25.5226L11.5654 20.6258V0L28.3119 4.89681Z" fill="#57A5D7"/>
</svg>
